<?xml version="1.0" standalone="no"?>
<!DOCTYPE svg PUBLIC "-//W3C//DTD SVG 20010904//EN"
 "http://www.w3.org/TR/2001/REC-SVG-20010904/DTD/svg10.dtd">
<svg version="1.0" xmlns="http://www.w3.org/2000/svg"
 width="820.000000pt" height="980.000000pt" viewBox="0 0 820.000000 980.000000"
 preserveAspectRatio="xMidYMid meet">

<g transform="translate(0.000000,980.000000) scale(0.100000,-0.100000)"
fill="#000000" stroke="none">
<path d="M4158 9785 c-77 -19 -120 -42 -216 -115 -117 -88 -262 -245 -354
-385 -87 -132 -206 -366 -261 -515 -118 -322 -175 -670 -164 -999 16 -473 125
-698 558 -1156 210 -223 267 -305 306 -438 24 -81 27 -461 9 -897 -22 -505
-36 -792 -42 -808 -5 -16 -54 25 -259 213 -345 316 -438 414 -485 510 -42 85
-56 153 -80 375 -21 205 -39 304 -63 361 -27 63 -216 260 -1101 1145 -839 838
-1005 996 -1062 1010 -29 7 -71 -11 -85 -38 -27 -50 51 -137 816 -908 727
-732 789 -801 770 -860 -8 -24 -72 -70 -97 -70 -19 0 -210 184 -958 925 -483
478 -702 685 -723 685 -24 0 -76 -40 -92 -70 -15 -28 -15 -34 -1 -55 26 -40
200 -220 844 -875 344 -349 656 -670 694 -713 l69 -78 -18 -31 c-24 -39 -64
-63 -94 -55 -35 9 -177 144 -844 802 -770 759 -804 789 -867 783 -40 -4 -73
-46 -64 -81 13 -55 129 -180 747 -807 625 -634 805 -820 836 -868 13 -18 13
-27 3 -52 -14 -35 -59 -70 -88 -70 -31 0 -224 182 -797 750 -791 784 -852 840
-914 840 -33 -1 -57 -19 -70 -53 -9 -23 -5 -32 29 -76 72 -91 522 -550 1181
-1206 663 -660 871 -857 945 -901 56 -33 147 -51 350 -69 201 -18 269 -30 343
-57 92 -35 129 -63 291 -227 166 -168 713 -756 719 -773 2 -6 -457 -472 -1021
-1037 -1336 -1339 -1446 -1453 -1510 -1574 -32 -59 -31 -197 1 -279 32 -83 97
-175 150 -214 127 -93 310 -115 449 -54 88 39 186 148 972 1070 736 864 999
1165 1008 1155 11 -10 -2 -358 -54 -1485 -15 -311 -27 -698 -28 -860 l-1 -295
30 -60 c39 -78 135 -174 211 -211 56 -28 66 -29 189 -29 121 0 134 2 188 27
73 34 162 123 205 204 62 120 62 137 -4 1519 -35 730 -53 1305 -41 1305 4 0
411 -444 905 -988 957 -1052 1105 -1210 1245 -1339 126 -114 169 -136 282
-141 252 -11 425 124 465 361 32 187 -23 308 -222 489 -51 46 -165 149 -253
229 -643 583 -2101 1921 -2283 2094 l-85 81 54 64 c29 36 110 122 179 191 145
145 139 142 410 204 319 73 478 125 665 214 275 132 480 288 797 608 416 420
762 902 1038 1448 249 492 383 911 384 1201 0 152 -40 234 -115 234 -55 0
-217 -158 -2196 -2134 -744 -743 -1353 -1346 -1353 -1341 0 6 -9 192 -20 415
-32 669 -42 1055 -30 1139 24 170 95 277 382 579 303 318 430 535 483 827 26
138 31 458 11 630 -54 466 -215 895 -464 1235 -74 101 -272 298 -351 348 -126
82 -260 108 -383 77z"/>
</g>
</svg>
