<?xml version="1.0" standalone="no"?>
<!DOCTYPE svg PUBLIC "-//W3C//DTD SVG 20010904//EN"
 "http://www.w3.org/TR/2001/REC-SVG-20010904/DTD/svg10.dtd">
<svg version="1.0" xmlns="http://www.w3.org/2000/svg"
 width="980.000000pt" height="981.000000pt" viewBox="0 0 980.000000 981.000000"
 preserveAspectRatio="xMidYMid meet">

<g transform="translate(0.000000,981.000000) scale(0.100000,-0.100000)"
fill="#000000" stroke="none">
<path d="M4640 9803 c-381 -26 -614 -62 -940 -143 -591 -147 -1172 -420 -1675
-785 -407 -296 -814 -705 -1103 -1108 -918 -1281 -1167 -2908 -672 -4397 140
-422 317 -781 575 -1170 637 -958 1597 -1663 2714 -1991 74 -21 140 -39 146
-39 9 0 241 388 263 440 1 3 -51 19 -115 34 -653 158 -1310 504 -1835 965
-1104 970 -1648 2409 -1462 3866 123 964 573 1872 1268 2559 475 469 1039 821
1659 1035 1487 513 3121 198 4312 -831 130 -113 363 -346 471 -473 864 -1014
1220 -2349 978 -3665 -213 -1156 -903 -2194 -1899 -2857 -405 -270 -888 -484
-1355 -599 -80 -20 -146 -38 -148 -39 -3 -3 244 -425 256 -437 17 -17 393 100
652 203 154 61 457 208 605 294 840 485 1521 1207 1954 2073 760 1520 664
3353 -251 4792 -317 499 -748 963 -1223 1316 -851 632 -1887 971 -2940 962
-104 -1 -210 -3 -235 -5z"/>
<path d="M4655 8900 c-743 -47 -1454 -297 -2058 -723 -1231 -867 -1869 -2351
-1652 -3842 102 -703 386 -1357 831 -1915 138 -173 451 -486 624 -623 479
-382 1041 -652 1629 -782 104 -24 124 -26 135 -14 7 8 115 193 240 412 l227
398 -532 1077 c-292 592 -535 1081 -539 1086 -5 5 -40 0 -82 -10 -56 -15 -109
-19 -228 -19 -189 0 -269 19 -436 100 -251 122 -442 319 -569 588 -87 184
-170 472 -210 727 -22 143 -31 449 -16 577 53 453 271 681 609 634 287 -40
623 -241 947 -566 284 -284 451 -541 521 -799 104 -391 8 -786 -255 -1039
l-71 -69 18 -32 c41 -79 1077 -1836 1082 -1836 3 1 245 421 538 935 l533 935
-50 57 c-107 120 -155 264 -155 468 0 144 20 243 74 362 40 87 768 1231 1007
1580 316 463 244 281 -262 -657 -204 -379 -465 -868 -465 -873 0 -6 120 -61
124 -56 2 2 194 321 426 709 500 835 630 1037 630 980 0 -37 -94 -236 -496
-1052 -200 -406 -364 -739 -364 -742 0 -4 106 -66 114 -66 5 0 -8 -23 408 725
458 823 597 1056 598 1003 1 -45 -119 -324 -425 -993 -251 -547 -375 -825
-375 -836 0 -9 92 -59 109 -59 10 0 54 83 461 875 327 636 450 862 480 880 5
3 10 2 10 -3 0 -42 -175 -489 -448 -1142 -363 -870 -386 -916 -537 -1066 -143
-142 -302 -215 -475 -218 -52 0 -113 2 -136 6 l-41 8 -498 -1038 c-274 -570
-509 -1060 -523 -1088 l-24 -50 237 -405 c130 -222 241 -409 246 -415 7 -9 46
-4 147 17 1168 246 2189 1035 2725 2106 215 429 333 815 399 1307 18 135 22
211 22 471 1 194 -4 355 -12 430 -141 1271 -850 2375 -1947 3030 -470 280
-1047 471 -1607 530 -177 18 -498 26 -663 15z"/>
<path d="M4782 1128 c-50 -105 -89 -194 -86 -197 9 -9 374 -13 373 -4 0 4 -44
95 -97 201 l-97 192 -93 -192z"/>
<path d="M4382 293 c-62 -129 -111 -237 -110 -238 2 -2 80 -11 173 -21 222
-24 703 -25 908 -1 77 8 141 18 143 20 3 3 -48 111 -113 241 l-118 236 -55 -8
c-72 -9 -532 -9 -635 0 l-80 8 -113 -237z"/>
</g>
</svg>
